<svg xmlns="http://www.w3.org/2000/svg" viewBox="0 0 900 490"><defs><linearGradient id="g" x2="1" y2="1"><stop stop-color="#214f59"/><stop offset="1" stop-color="#0c222e"/></linearGradient><filter id="s"><feDropShadow dx="0" dy="18" stdDeviation="18" flood-opacity=".3"/></filter></defs><rect width="900" height="490" fill="url(#g)"/><path d="M0 410 900 120M0 460 900 170" stroke="#85d3c4" stroke-opacity=".09" stroke-width="1"/><circle cx="725" cy="90" r="180" fill="#8be5d6" opacity=".08"/><rect x="102" y="85" width="690" height="345" rx="18" fill="#edf3ed" filter="url(#s)"/><path d="M120 85h654a18 18 0 0 1 18 18v42H102v-42a18 18 0 0 1 18-18Z" fill="#122a36"/><circle cx="130" cy="115" r="5" fill="#edaa7e"/><circle cx="150" cy="115" r="5" fill="#a8dec7"/><rect x="190" y="104" width="294" height="21" rx="10" fill="#31505b"/><rect x="126" y="172" width="254" height="230" rx="12" fill="#c7ddd9"/><path d="M156 284h195M156 304h150" stroke="#3f7779" stroke-width="12" stroke-linecap="round"/><rect x="415" y="176" width="260" height="17" rx="8" fill="#173a43"/><rect x="415" y="211" width="320" height="10" rx="5" fill="#a9bfc0"/><rect x="415" y="233" width="280" height="10" rx="5" fill="#a9bfc0"/><rect x="415" y="277" width="112" height="39" rx="6" fill="#235964"/><rect x="543" y="277" width="112" height="39" rx="6" fill="#d6e5e2"/><rect x="415" y="347" width="320" height="1" fill="#c9d5d0"/><text x="415" y="379" font-family="Arial,sans-serif" font-size="17" font-weight="700" fill="#1e454b">BALAJI COMPUTERS</text></svg>
